<?xml version="1.0" encoding="UTF-8"?>
<svg data-bbox="0.497 0 952.433 162.18" viewBox="0 0 952.94 162.18" xmlns="http://www.w3.org/2000/svg" data-type="ugc">
    <g>
        <path d="m140.79 140.21 39.86-.87c28.49-15.54 44.52-46.38 40.34-76.9-5.42-39.55-41.84-56.94-44.27-58.05l-69.01.5-6.86 7.97.88 40.67c1.37 5.33 6.31 8.99 11.72 8.75 5.22-.23 9.7-4.04 10.8-9.24l-.06-24.5 53.02-.99c2.87 2.17 19.67 15.27 21.84 38.37 2.81 29.95-21.61 48.54-22.93 49.51l-37.4.81" fill="#4793af" stroke="#4793af" stroke-width="4" stroke-miterlimit="10"/>
        <path d="M110.18 92.59c2.98 5.51.89 12.5-4.62 15.48s-12.5.89-15.48-4.62L61.57 45.9l-39.06 89.87c-2.34 5.81-9.05 8.67-14.87 6.32-5.81-2.34-8.67-9.05-6.32-14.87L52.81 11.09c1.76-3.32 5.23-5.35 8.89-5.19 5.09.22 7.69 4.53 7.86 4.83l40.62 81.87Z" stroke-miterlimit="10" fill="#000000" stroke="#000000"/>
        <path fill="#c1272d" d="M128.39 129.23c0 6.351-5.149 11.5-11.5 11.5s-11.5-5.149-11.5-11.5 5.149-11.5 11.5-11.5 11.5 5.149 11.5 11.5z"/>
        <path fill="#c1272d" d="M702.25 11.5c0 6.351-5.149 11.5-11.5 11.5s-11.5-5.149-11.5-11.5S684.399 0 690.75 0s11.5 5.149 11.5 11.5z"/>
        <path d="M312.27 125.78c-7.24 0-13.24-1.23-18.02-3.68-4.79-2.45-8.34-5.71-10.68-9.8-2.33-4.08-3.5-8.51-3.5-13.3 0-5.6 1.43-10.44 4.29-14.53 2.86-4.08 7.09-7.26 12.69-9.54 5.6-2.28 12.48-3.41 20.65-3.41h22.23c0-4.67-.64-8.54-1.92-11.64-1.29-3.09-3.27-5.4-5.95-6.91-2.69-1.51-6.12-2.27-10.32-2.27-4.79 0-8.87 1.08-12.25 3.24-3.39 2.16-5.49 5.46-6.3 9.89h-20.65c.7-6.3 2.8-11.69 6.3-16.19 3.5-4.49 8.14-7.99 13.91-10.5s12.1-3.76 18.99-3.76c8.28 0 15.34 1.43 21.17 4.29 5.83 2.86 10.29 6.94 13.39 12.25 3.09 5.31 4.64 11.7 4.64 19.16v54.6h-17.85l-2.1-14.17a29.203 29.203 0 0 1-10.67 11.63c-2.33 1.46-4.99 2.6-7.96 3.41-2.98.81-6.33 1.23-10.06 1.23Zm4.72-16.62c3.38 0 6.39-.61 9.01-1.84s4.9-2.98 6.83-5.25c1.92-2.28 3.41-4.81 4.46-7.61 1.05-2.8 1.75-5.77 2.1-8.92v-.35h-19.42c-4.09 0-7.47.52-10.15 1.58-2.69 1.05-4.61 2.48-5.77 4.29-1.17 1.81-1.75 3.94-1.75 6.39s.58 4.55 1.75 6.3 2.86 3.09 5.08 4.03c2.21.94 4.84 1.4 7.88 1.4Z" fill="#000000"/>
        <path d="m390.77 123.68-25.9-88.2h20.82l18.02 72.45-3.85-.17 20.12-72.28h23.45l20.3 72.28h-3.85l18.02-72.28h20.83l-25.9 88.2h-21.7l-21.52-74.73h4.38l-21.53 74.73h-21.7Z" fill="#000000"/>
        <path d="M529.99 124.78c-7.24 0-13.24-1.23-18.02-3.68-4.79-2.45-8.34-5.71-10.68-9.8-2.33-4.08-3.5-8.51-3.5-13.3 0-5.6 1.43-10.44 4.29-14.53 2.86-4.08 7.09-7.26 12.69-9.54 5.6-2.28 12.48-3.41 20.65-3.41h22.23c0-4.67-.64-8.54-1.92-11.64-1.29-3.09-3.27-5.4-5.95-6.91-2.69-1.51-6.12-2.27-10.32-2.27-4.79 0-8.87 1.08-12.25 3.24-3.39 2.16-5.49 5.46-6.3 9.89h-20.65c.7-6.3 2.8-11.69 6.3-16.19 3.5-4.49 8.14-7.99 13.91-10.5s12.1-3.76 18.99-3.76c8.28 0 15.34 1.43 21.17 4.29 5.83 2.86 10.29 6.94 13.39 12.25 3.09 5.31 4.64 11.7 4.64 19.16v54.6h-17.85l-2.1-14.17a29.203 29.203 0 0 1-10.67 11.63c-2.33 1.46-4.99 2.6-7.96 3.41-2.98.81-6.33 1.23-10.06 1.23Zm4.73-16.62c3.38 0 6.39-.61 9.01-1.84s4.9-2.98 6.83-5.25c1.92-2.28 3.41-4.81 4.46-7.61 1.05-2.8 1.75-5.77 2.1-8.92v-.35H537.7c-4.09 0-7.47.52-10.15 1.58-2.69 1.05-4.61 2.48-5.77 4.29-1.17 1.81-1.75 3.94-1.75 6.39s.58 4.55 1.75 6.3 2.86 3.09 5.08 4.03c2.21.94 4.84 1.4 7.88 1.4Z" fill="#000000"/>
        <path d="M587.04 123.68v-88.2h18.55l1.58 14.7c2.68-5.13 6.53-9.21 11.55-12.25 5.02-3.03 10.96-4.55 17.85-4.55s13.18 1.49 18.2 4.46c5.01 2.98 8.89 7.32 11.64 13.04 2.74 5.72 4.11 12.83 4.11 21.35v51.45h-21V74.16c0-7.35-1.64-13.01-4.9-16.98-3.27-3.96-8.11-5.95-14.52-5.95-4.2 0-7.96.99-11.29 2.98-3.32 1.99-5.95 4.87-7.88 8.66-1.92 3.79-2.89 8.37-2.89 13.74v47.08h-21Z" fill="#000000"/>
        <path d="M679.61 123.68v-88.2h21v88.2h-21Z" fill="#000000"/>
        <path d="M710.94 162.18V35.48h18.73l2.27 12.78c1.86-2.56 4.11-4.99 6.74-7.26s5.83-4.11 9.62-5.51c3.79-1.4 8.14-2.1 13.04-2.1 8.28 0 15.6 2.04 21.96 6.12 6.36 4.08 11.35 9.6 14.96 16.54 3.62 6.94 5.43 14.85 5.43 23.71s-1.84 16.77-5.51 23.71c-3.67 6.94-8.69 12.4-15.05 16.36-6.36 3.96-13.62 5.95-21.79 5.95-6.65 0-12.46-1.26-17.41-3.76-4.96-2.51-8.96-6.09-11.99-10.76v50.92h-21Zm46.02-54.6c4.9 0 9.27-1.16 13.12-3.5 3.85-2.33 6.85-5.6 9.01-9.8 2.16-4.2 3.24-9.04 3.24-14.52s-1.08-10.5-3.24-14.7c-2.16-4.2-5.16-7.46-9.01-9.8-3.85-2.33-8.23-3.5-13.12-3.5s-9.42 1.17-13.21 3.5c-3.79 2.33-6.77 5.6-8.93 9.8-2.16 4.2-3.24 9.04-3.24 14.52s1.08 10.47 3.24 14.61c2.16 4.14 5.13 7.41 8.93 9.8 3.79 2.39 8.19 3.59 13.21 3.59Z" fill="#000000"/>
        <path d="M810.99 123.68v-88.2h18.73l1.92 16.45c2.1-3.85 4.73-7.15 7.88-9.89 3.15-2.74 6.85-4.87 11.11-6.39 4.26-1.52 8.95-2.27 14.09-2.27V55.6h-7.35c-3.5 0-6.83.44-9.98 1.31s-5.86 2.28-8.14 4.2c-2.27 1.92-4.05 4.55-5.34 7.88s-1.92 7.5-1.92 12.51v42.17h-21Z" fill="#000000"/>
        <path d="M908.66 125.78c-8.4 0-15.96-1.96-22.66-5.86-6.71-3.91-11.96-9.33-15.75-16.27-3.79-6.94-5.69-14.9-5.69-23.89s1.92-17.29 5.77-24.24c3.85-6.94 9.13-12.36 15.84-16.27 6.71-3.91 14.26-5.86 22.66-5.86s15.95 1.96 22.66 5.86c6.71 3.91 11.96 9.31 15.75 16.19 3.79 6.89 5.69 14.94 5.69 24.15s-1.92 17.27-5.77 24.15c-3.85 6.89-9.13 12.28-15.84 16.19-6.71 3.91-14.26 5.86-22.66 5.86Zm0-18.02c4.2 0 8.02-1.05 11.46-3.15 3.44-2.1 6.21-5.25 8.31-9.45 2.1-4.2 3.15-9.39 3.15-15.58s-1.02-11.34-3.06-15.49c-2.04-4.14-4.79-7.26-8.23-9.36-3.44-2.1-7.26-3.15-11.46-3.15s-7.88 1.05-11.38 3.15c-3.5 2.1-6.3 5.22-8.4 9.36-2.1 4.14-3.15 9.31-3.15 15.49s1.05 11.37 3.15 15.58c2.1 4.2 4.87 7.35 8.31 9.45 3.44 2.1 7.2 3.15 11.29 3.15Z" fill="#000000"/>
    </g>
</svg>
