<?xml version="1.0" encoding="UTF-8"?>
<svg data-bbox="0 12.38 4256.48 1566.34" viewBox="0 0 4256.48 1578.71" xmlns="http://www.w3.org/2000/svg" data-type="ugc">
    <g>
        <path d="M1088.25 233.79c-61.79-7.31-108.79-51.73-112.35-103.89-.64-9.39.15-18.67 2.22-27.64 10.48-45.33 53.69-83.01 110.13-89.87l.48 152.86" stroke="#c1272d" fill="#ffffff" stroke-width="20" stroke-miterlimit="10"/>
        <path stroke="#c1272d" fill="#ffffff" stroke-width="20" stroke-miterlimit="10" d="M978.12 102.25h110.13"/>
        <path d="M1115.72 12.38c57.68 12.42 95.9 52.72 100.38 101.34 5 54.28-37.55 106.16-100.38 120.07V12.38Z" fill="#ffffff" stroke-width="20" stroke="#000000" stroke-miterlimit="10"/>
        <path d="m469.14 1530.56-11.7-28.35h-77.62l-11.7 28.35h-39.38l70.65-157.5h39.38l70.2 157.5h-39.82Zm-50.17-122.17-25.88 62.1h51.3l-25.43-62.1Z" fill="#000000"/>
        <path d="M648.46 1419.41h37.35l-37.12 111.15h-33.53l-9.22-27.22-12.83-35.78-12.83 35.78-9.22 27.22h-33.75l-37.12-111.15h37.35l9.9 34.2 8.55 34.2 25.42-68.4h23.4l25.42 68.62 8.55-34.42 9.68-34.2Z" fill="#000000"/>
        <path d="M811.81 1419.41v111.15h-30.6l-2.25-13.28c-9.45 10.35-21.75 15.53-36.9 15.53-10.35 0-19.54-2.44-27.56-7.31-8.03-4.87-14.29-11.7-18.79-20.47-4.5-8.78-6.75-18.79-6.75-30.04s2.25-21.26 6.75-30.04c4.5-8.78 10.76-15.6 18.79-20.48 8.02-4.87 17.21-7.31 27.56-7.31 7.5 0 14.4 1.32 20.7 3.94 6.3 2.63 11.7 6.41 16.2 11.36l2.25-13.05h30.6Zm-42.3 75.94c4.95-5.17 7.43-11.96 7.43-20.36s-2.48-15.19-7.43-20.36-11.33-7.76-19.12-7.76-14.14 2.63-19.01 7.88c-4.88 5.25-7.31 12-7.31 20.25s2.44 15 7.31 20.25c4.87 5.25 11.21 7.88 19.01 7.88s14.18-2.59 19.12-7.76Z" fill="#000000"/>
        <path d="M939.95 1430.44c8.17 9 12.26 21.45 12.26 37.35v62.78h-35.33v-60.75c0-7.2-1.8-12.83-5.4-16.88-3.6-4.05-8.55-6.08-14.85-6.08-6.9 0-12.45 2.33-16.65 6.98-4.2 4.65-6.3 10.73-6.3 18.22v58.5h-35.32v-111.15h30.6l2.25 13.05c4.35-4.95 9.56-8.78 15.64-11.48s12.79-4.05 20.14-4.05c13.8 0 24.79 4.5 32.96 13.5Z" fill="#000000"/>
        <path d="M977.41 1419.41h35.32v111.15h-35.32v-111.15Z" fill="#000000"/>
        <path d="M1136.71 1424.48c8.1 4.88 14.4 11.7 18.9 20.48 4.5 8.77 6.75 18.79 6.75 30.04s-2.25 21.26-6.75 30.04c-4.5 8.77-10.8 15.6-18.9 20.47-8.1 4.88-17.33 7.31-27.67 7.31-13.8 0-25.28-4.35-34.43-13.05v58.95h-35.32v-159.3h30.6l2.25 13.05c9.3-10.2 21.6-15.3 36.9-15.3 10.35 0 19.57 2.44 27.67 7.31Zm-16.88 70.87c4.95-5.17 7.42-11.96 7.42-20.36s-2.47-15.19-7.42-20.36-11.33-7.76-19.12-7.76-14.14 2.63-19.01 7.88c-4.88 5.25-7.31 12-7.31 20.25s2.44 15 7.31 20.25c4.87 5.25 11.21 7.88 19.01 7.88s14.17-2.59 19.12-7.76Z" fill="#000000"/>
        <path d="M1260.91 1419.75c5.1 1.88 9.52 4.61 13.28 8.21l-14.85 25.88c-3.15-1.95-6.07-3.38-8.77-4.28s-5.55-1.35-8.55-1.35c-7.5 0-13.43 2.4-17.78 7.2-4.35 4.8-6.53 11.85-6.53 21.15v54h-35.32v-111.15h30.82l2.7 13.95c7.2-10.95 17.1-16.42 29.7-16.42 5.1 0 10.2.94 15.3 2.81Z" fill="#000000"/>
        <path d="M1305.57 1525.73c-9.22-4.87-16.31-11.66-21.26-20.36-4.95-8.7-7.43-18.82-7.43-30.38s2.48-21.67 7.43-30.38c4.95-8.7 12.04-15.49 21.26-20.36 9.23-4.87 19.99-7.31 32.29-7.31s23.1 2.44 32.4 7.31c9.3 4.88 16.43 11.67 21.38 20.36 4.95 8.7 7.43 18.83 7.43 30.38s-2.48 21.68-7.43 30.38c-4.95 8.7-12.08 15.49-21.38 20.36-9.3 4.87-20.1 7.31-32.4 7.31s-23.06-2.44-32.29-7.31Zm51.19-30.49c4.8-5.25 7.2-12 7.2-20.25s-2.4-15-7.2-20.25c-4.8-5.25-11.1-7.88-18.9-7.88s-13.88 2.63-18.67 7.88c-4.8 5.25-7.2 12-7.2 20.25s2.4 15 7.2 20.25c4.8 5.25 11.02 7.88 18.67 7.88s14.1-2.62 18.9-7.88Z" fill="#000000"/>
        <path fill="#dd5746" d="M1565.69 890.79h21.81l79-156h-23.45"/>
        <path fill="#ffc470" d="M1746.89 890.49h-21.8l-79-156h23.44"/>
        <path d="M1640.09 837.39c19.75-2.06 35.15 10.59 36.34 22.47 1.3 12.99-13.89 30.17-36.34 28.92" fill="#4793af" stroke="#4793af" stroke-width="4" stroke-miterlimit="10"/>
        <path d="M1803.17 821.35c0-37.59 27.09-56.7 52.92-56.7 19.95 0 33.81 10.92 37.8 19.53h.63v-17.43h23.1v109.2h-23.1v-17.43h-.63c-3.99 8.61-17.85 19.53-37.8 19.53-25.83 0-52.92-19.11-52.92-56.7Zm57.33 35.7c17.64 0 34.65-12.18 34.65-35.7s-17.01-35.7-34.65-35.7-34.44 12.18-34.44 35.7 17.01 35.7 34.44 35.7Z" fill="#000000"/>
        <path d="m2023.67 795.1-30.45 80.85h-21.42l-40.53-109.2h23.1l28.56 81.06 30.03-81.06h21.42l30.03 81.06 28.35-81.06h23.31l-40.53 109.2h-21.42l-30.45-80.85Z" fill="#000000"/>
        <path d="M2120.27 821.35c0-37.59 27.09-56.7 52.92-56.7 19.95 0 33.81 10.92 37.8 19.53h.63v-17.43h23.1v109.2h-23.1v-17.43h-.63c-3.99 8.61-17.85 19.53-37.8 19.53-25.83 0-52.92-19.11-52.92-56.7Zm57.33 35.7c17.64 0 34.65-12.18 34.65-35.7s-17.01-35.7-34.65-35.7-34.44 12.18-34.44 35.7 17.01 35.7 34.44 35.7Z" fill="#000000"/>
        <path d="M2257.82 766.75h23.1v16.38c5.88-10.08 17.43-18.48 35.07-18.48 22.47 0 41.79 14.07 41.79 47.04v64.26h-23.31v-60.48c0-19.11-10.5-29.82-26.67-29.82s-26.88 10.71-26.88 29.82v60.48h-23.1v-109.2Z" fill="#000000"/>
        <path d="M2380.88 766.75h23.1v109.2h-23.1v-109.2Z" fill="#000000"/>
        <path d="M2427.07 766.75h23.1v17.43h.63c3.99-8.61 17.85-19.53 37.8-19.53 25.83 0 52.92 19.11 52.92 56.7s-27.09 56.7-52.92 56.7c-19.95 0-33.81-10.92-37.8-19.53h-.63v57.33h-23.1v-149.1Zm57.12 90.3c17.43 0 34.44-12.18 34.44-35.7s-17.01-35.7-34.44-35.7-34.65 12.18-34.65 35.7 17.01 35.7 34.65 35.7Z" fill="#000000"/>
        <path d="M2559.37 766.75h23.1v28.14c3.78-16.38 14.7-30.24 34.65-30.24 2.52 0 4.62.21 6.93.84v22.05c-2.31-.42-4.2-.63-6.72-.63-20.79 0-34.86 15.12-34.86 38.01v51.03h-23.1v-109.2Z" fill="#000000"/>
        <path d="M2633.29 821.35c0-36.75 28.77-56.7 57.12-56.7s57.12 19.95 57.12 56.7-28.77 56.7-57.12 56.7-57.12-19.95-57.12-56.7Zm57.12 35.49c17.85 0 34.02-13.02 34.02-35.49s-16.17-35.49-34.02-35.49-34.23 13.02-34.23 35.49 16.38 35.49 34.23 35.49Z" fill="#000000"/>
        <path d="M2391.8 916.78c-.02 7.06-.04 14.12-.05 21.18 11.62-3.68 23.29-7.37 35.34-9.17 12.05-1.8 24.6-1.64 36.13 2.28 6.2 2.11 12.01 5.26 18.22 7.34 16.2 5.44 34.85 3.03 49.14-6.35-.84-4.26-1.69-8.51-2.53-12.77-16.09 5.17-33.64 5.69-50.01 1.48-11.11-2.85-21.64-7.78-32.96-9.88-10.98-2.04-21.81-1.19-32.72.82a176.75 176.75 0 0 0-20.56 5.07Z" fill="#dd5746"/>
        <path fill="#ffc470" stroke="#ffc470" stroke-width="4" stroke-miterlimit="10" d="m2392.005 705.952 23.335 23.334-23.335 23.335-23.334-23.335 23.334-23.334z"/>
        <path fill="#dd5746" d="M1565.32 1173.81h21.81l79-156h-23.44"/>
        <path fill="#000000" d="M1746.53 1173.51h-21.81l-79-156h23.44"/>
        <path d="M1639.72 1120.41c19.75-2.06 35.15 10.59 36.34 22.47 1.3 12.99-13.89 30.17-36.34 28.92" fill="#4793af" stroke="#4793af" stroke-width="4" stroke-miterlimit="10"/>
        <path d="M1802.8 1104.37c0-37.59 27.09-56.7 52.92-56.7 19.95 0 33.81 10.92 37.8 19.53h.63v-17.43h23.1v109.2h-23.1v-17.43h-.63c-3.99 8.61-17.85 19.53-37.8 19.53-25.83 0-52.92-19.11-52.92-56.7Zm57.33 35.7c17.64 0 34.65-12.18 34.65-35.7s-17.01-35.7-34.65-35.7-34.44 12.18-34.44 35.7 17.01 35.7 34.44 35.7Z" fill="#000000"/>
        <path d="m2023.3 1078.12-30.45 80.85h-21.42l-40.53-109.2h23.1l28.56 81.06 30.03-81.06h21.42l30.03 81.06 28.35-81.06h23.31l-40.53 109.2h-21.42l-30.45-80.85Z" fill="#000000"/>
        <path d="M2119.9 1104.37c0-37.59 27.09-56.7 52.92-56.7 19.95 0 33.81 10.92 37.8 19.53h.63v-17.43h23.1v109.2h-23.1v-17.43h-.63c-3.99 8.61-17.85 19.53-37.8 19.53-25.83 0-52.92-19.11-52.92-56.7Zm57.33 35.7c17.64 0 34.65-12.18 34.65-35.7s-17.01-35.7-34.65-35.7-34.44 12.18-34.44 35.7 17.01 35.7 34.44 35.7Z" fill="#000000"/>
        <path d="M2257.45 1049.77h23.1v16.38c5.88-10.08 17.43-18.48 35.07-18.48 22.47 0 41.79 14.07 41.79 47.04v64.26h-23.31v-60.48c0-19.11-10.5-29.82-26.67-29.82s-26.88 10.71-26.88 29.82v60.48h-23.1v-109.2Z" fill="#000000"/>
        <path d="M2380.51 1049.77h23.1v109.2h-23.1v-109.2Z" fill="#000000"/>
        <path d="M2426.71 1049.77h23.1v17.43h.63c3.99-8.61 17.85-19.53 37.8-19.53 25.83 0 52.92 19.11 52.92 56.7s-27.09 56.7-52.92 56.7c-19.95 0-33.81-10.92-37.8-19.53h-.63v57.33h-23.1v-149.1Zm57.12 90.3c17.43 0 34.44-12.18 34.44-35.7s-17.01-35.7-34.44-35.7-34.65 12.18-34.65 35.7 17.01 35.7 34.65 35.7Z" fill="#000000"/>
        <path d="M2559 1049.77h23.1v28.14c3.78-16.38 14.7-30.24 34.65-30.24 2.52 0 4.62.21 6.93.84v22.05c-2.31-.42-4.2-.63-6.72-.63-20.79 0-34.86 15.12-34.86 38.01v51.03H2559v-109.2Z" fill="#000000"/>
        <path d="M2632.92 1104.37c0-36.75 28.77-56.7 57.12-56.7s57.12 19.95 57.12 56.7-28.77 56.7-57.12 56.7-57.12-19.95-57.12-56.7Zm57.12 35.49c17.85 0 34.02-13.02 34.02-35.49s-16.17-35.49-34.02-35.49-34.23 13.02-34.23 35.49 16.38 35.49 34.23 35.49Z" fill="#000000"/>
        <path d="M2391.43 1199.8c-.02 7.06-.04 14.12-.05 21.18 11.62-3.68 23.29-7.37 35.34-9.17 12.05-1.8 24.6-1.64 36.13 2.28 6.2 2.11 12.01 5.26 18.22 7.34 16.2 5.44 34.85 3.03 49.14-6.35-.84-4.26-1.69-8.51-2.53-12.77-16.09 5.17-33.64 5.69-50.01 1.48-11.11-2.85-21.64-7.78-32.96-9.88-10.98-2.04-21.81-1.19-32.72.82a176.75 176.75 0 0 0-20.56 5.07Z" fill="#dd5746"/>
        <path fill="#dd5746" d="m2391.63 988.98 23.334 23.334-23.335 23.334-23.334-23.334 23.334-23.335z"/>
        <path fill="#dd5746" d="M0 1530.86v-69.04l85.41-84.53h66.64v153.57h-40.58l1.04-108.4-15.6-3.29-51.74 50.1-.69 61.59H0z"/>
        <path fill="#4793af" stroke="#4793af" stroke-width="4" stroke-miterlimit="10" d="M161.34 1377.29h32.08l77.08 87.46v66.11H161.34v-42.66l68.92 1.19 1.85-12.76-54.41-56.23-16.36-1.08"/>
        <path fill="#dd5746" d="M1013.5 1381.79c0 11.046-8.954 20-20 20s-20-8.954-20-20 8.954-20 20-20 20 8.954 20 20z"/>
        <path d="m469.47 1264.25-11.7-28.35h-77.62l-11.7 28.35h-39.38l70.65-157.5h39.38l70.2 157.5h-39.82Zm-50.17-122.17-25.88 62.1h51.3l-25.43-62.1Z" fill="#000000"/>
        <path d="M648.8 1153.1h37.35l-37.12 111.15H615.5l-9.22-27.22-12.83-35.78-12.83 35.78-9.22 27.22h-33.75l-37.12-111.15h37.35l9.9 34.2 8.55 34.2 25.42-68.4h23.4l25.42 68.62 8.55-34.42 9.68-34.2Z" fill="#000000"/>
        <path d="M812.15 1153.1v111.15h-30.6l-2.25-13.28c-9.45 10.35-21.75 15.53-36.9 15.53-10.35 0-19.54-2.44-27.56-7.31-8.03-4.87-14.29-11.7-18.79-20.47-4.5-8.78-6.75-18.79-6.75-30.04s2.25-21.26 6.75-30.04c4.5-8.78 10.76-15.6 18.79-20.48 8.02-4.87 17.21-7.31 27.56-7.31 7.5 0 14.4 1.32 20.7 3.94 6.3 2.63 11.7 6.41 16.2 11.36l2.25-13.05h30.6Zm-42.3 75.94c4.95-5.17 7.43-11.96 7.43-20.36s-2.48-15.19-7.43-20.36-11.33-7.76-19.13-7.76-14.14 2.63-19.01 7.88c-4.88 5.25-7.31 12-7.31 20.25s2.44 15 7.31 20.25c4.87 5.25 11.21 7.88 19.01 7.88s14.18-2.59 19.13-7.76Z" fill="#000000"/>
        <path d="M940.28 1164.12c8.17 9 12.26 21.45 12.26 37.35v62.78h-35.33v-60.75c0-7.2-1.8-12.83-5.4-16.88-3.6-4.05-8.55-6.08-14.85-6.08-6.9 0-12.45 2.33-16.65 6.98-4.2 4.65-6.3 10.73-6.3 18.22v58.5h-35.32v-111.15h30.6l2.25 13.05c4.35-4.95 9.56-8.78 15.64-11.48s12.79-4.05 20.14-4.05c13.8 0 24.79 4.5 32.96 13.5Z" fill="#000000"/>
        <path d="M977.74 1153.1h35.32v111.15h-35.32V1153.1Z" fill="#000000"/>
        <path d="M1137.04 1158.16c8.1 4.88 14.4 11.7 18.9 20.48 4.5 8.77 6.75 18.79 6.75 30.04s-2.25 21.26-6.75 30.04c-4.5 8.77-10.8 15.6-18.9 20.47-8.1 4.88-17.33 7.31-27.67 7.31-13.8 0-25.28-4.35-34.43-13.05v58.95h-35.32v-159.3h30.6l2.25 13.05c9.3-10.2 21.6-15.3 36.9-15.3 10.35 0 19.57 2.44 27.67 7.31Zm-16.87 70.88c4.95-5.17 7.42-11.96 7.42-20.36s-2.47-15.19-7.42-20.36-11.33-7.76-19.12-7.76-14.14 2.63-19.01 7.88c-4.88 5.25-7.31 12-7.31 20.25s2.44 15 7.31 20.25c4.87 5.25 11.21 7.88 19.01 7.88s14.17-2.59 19.12-7.76Z" fill="#000000"/>
        <path d="M1261.24 1153.44c5.1 1.88 9.52 4.61 13.28 8.21l-14.85 25.88c-3.15-1.95-6.07-3.38-8.77-4.28s-5.55-1.35-8.55-1.35c-7.5 0-13.43 2.4-17.78 7.2-4.35 4.8-6.53 11.85-6.53 21.15v54h-35.32V1153.1h30.82l2.7 13.95c7.2-10.95 17.1-16.42 29.7-16.42 5.1 0 10.2.94 15.3 2.81Z" fill="#000000"/>
        <path d="M1305.9 1259.41c-9.22-4.87-16.31-11.66-21.26-20.36-4.95-8.7-7.43-18.82-7.43-30.38s2.48-21.67 7.43-30.38c4.95-8.7 12.04-15.49 21.26-20.36 9.23-4.87 19.99-7.31 32.29-7.31s23.1 2.44 32.4 7.31c9.3 4.88 16.43 11.67 21.38 20.36 4.95 8.7 7.43 18.83 7.43 30.38s-2.48 21.68-7.43 30.38c-4.95 8.7-12.08 15.49-21.38 20.36-9.3 4.87-20.1 7.31-32.4 7.31s-23.06-2.44-32.29-7.31Zm51.19-30.49c4.8-5.25 7.2-12 7.2-20.25s-2.4-15-7.2-20.25c-4.8-5.25-11.1-7.88-18.9-7.88s-13.88 2.63-18.67 7.88c-4.8 5.25-7.2 12-7.2 20.25s2.4 15 7.2 20.25c4.8 5.25 11.02 7.88 18.67 7.88s14.1-2.62 18.9-7.88Z" fill="#000000"/>
        <path fill="#bc7fcd" d="M54.33 1264.55v-69.05l85.41-84.53h66.64v153.58h-40.57l1.04-108.41-15.61-3.28-51.74 50.1-.69 61.59H54.33z"/>
        <path fill="#ffcdea" stroke-width="4" stroke="#ffcdea" stroke-miterlimit="10" d="M215.67 1110.97h21.7l52.13 51.95v39.26h-73.83v-25.34l46.61.71 1.26-7.58-36.8-33.39-11.07-.64"/>
        <path fill="#ffcdea" d="M1013.83 1115.47c0 11.046-8.954 20-20 20s-20-8.954-20-20 8.954-20 20-20 20 8.954 20 20z"/>
        <path fill="#ffcdea" stroke-width="4" stroke="#ffcdea" stroke-miterlimit="10" d="m215.67 1202.18-.33 62.37 21.8-.3v-60.08"/>
        <path d="m756.63 189.64 39.86-.87c28.49-15.54 44.52-46.38 40.34-76.9-5.42-39.55-41.84-56.94-44.27-58.05l-69.01.5-6.86 7.97.88 40.67c1.37 5.33 6.31 8.99 11.72 8.75 5.22-.23 9.7-4.04 10.8-9.24l-.06-24.5 53.02-.99c2.87 2.17 19.67 15.27 21.84 38.37 2.81 29.95-21.61 48.54-22.93 49.51l-37.4.81" stroke="#000000" stroke-miterlimit="10" fill="#000000"/>
        <path d="M726.02 142.03c2.98 5.51.89 12.5-4.62 15.48s-12.5.89-15.48-4.62l-28.51-57.55-39.06 89.87c-2.34 5.81-9.05 8.67-14.87 6.32s-8.67-9.05-6.32-14.87l51.49-116.15c1.76-3.32 5.23-5.35 8.89-5.19 5.09.22 7.69 4.53 7.86 4.83l40.62 81.87Z" stroke="#000000" stroke-miterlimit="10" fill="#000000"/>
        <path stroke="#000000" stroke-miterlimit="10" fill="#000000" d="M744.23 178.66c0 6.351-5.149 11.5-11.5 11.5s-11.5-5.149-11.5-11.5 5.149-11.5 11.5-11.5 11.5 5.149 11.5 11.5z"/>
        <path fill="#dd5746" d="M294.28 200.38h21.81l79-156h-23.45"/>
        <path fill="#000000" d="M475.48 200.08h-21.8l-79-156h23.44"/>
        <path d="M368.68 146.98c19.75-2.06 35.15 10.59 36.34 22.47 1.3 12.99-13.89 30.17-36.34 28.92" fill="#4793af" stroke="#4793af" stroke-width="4" stroke-miterlimit="10"/>
        <path fill="#dd5746" d="M1326.63 198.04V129l85.41-84.53h66.64v153.57h-40.57l1.04-108.4-15.61-3.29-51.74 50.1-.69 61.59h-44.48z"/>
        <path fill="#4793af" stroke="#4793af" stroke-width="4" stroke-miterlimit="10" d="M1487.97 44.47h32.09l77.07 87.46v66.11h-109.16v-42.66l68.92 1.19 1.85-12.76-54.41-56.23-16.36-1.08"/>
        <path d="m319.05 677 39.86-.87c28.49-15.54 44.52-46.38 40.34-76.9-5.42-39.55-41.84-56.94-44.27-58.05l-69.01.5-6.86 7.97.88 40.67c1.37 5.33 6.31 8.99 11.72 8.75 5.22-.23 9.7-4.04 10.8-9.24l-.06-24.5 53.02-.99c2.87 2.17 19.67 15.27 21.84 38.37 2.81 29.95-21.61 48.54-22.93 49.51l-37.4.81" fill="#4793af" stroke="#4793af" stroke-width="4" stroke-miterlimit="10"/>
        <path d="M288.43 629.38c2.98 5.51.89 12.5-4.62 15.48s-12.5.89-15.48-4.62l-28.51-57.55-39.06 89.87c-2.34 5.81-9.05 8.67-14.87 6.32s-8.67-9.05-6.32-14.87l51.49-116.15c1.76-3.32 5.23-5.35 8.89-5.19 5.09.22 7.69 4.53 7.86 4.83l40.62 81.87Z" stroke="#000000" stroke-miterlimit="10" fill="#000000"/>
        <path fill="#c1272d" d="M306.64 666.01c0 6.351-5.149 11.5-11.5 11.5s-11.5-5.149-11.5-11.5 5.149-11.5 11.5-11.5 11.5 5.149 11.5 11.5z"/>
        <path fill="#c1272d" d="M880.5 541.29c0 6.351-5.149 11.5-11.5 11.5s-11.5-5.149-11.5-11.5 5.149-11.5 11.5-11.5 11.5 5.149 11.5 11.5z"/>
        <path d="M490.52 655.57c-7.24 0-13.24-1.23-18.02-3.68-4.79-2.45-8.34-5.71-10.68-9.8-2.33-4.08-3.5-8.51-3.5-13.3 0-5.6 1.43-10.44 4.29-14.53 2.86-4.08 7.09-7.26 12.69-9.54 5.6-2.28 12.48-3.41 20.65-3.41h22.23c0-4.67-.64-8.54-1.92-11.64-1.29-3.09-3.27-5.4-5.95-6.91-2.69-1.51-6.12-2.27-10.32-2.27-4.79 0-8.87 1.08-12.25 3.24-3.39 2.16-5.49 5.46-6.3 9.89h-20.65c.7-6.3 2.8-11.69 6.3-16.19 3.5-4.49 8.14-7.99 13.91-10.5s12.1-3.76 18.99-3.76c8.28 0 15.34 1.43 21.17 4.29 5.83 2.86 10.29 6.94 13.39 12.25 3.09 5.31 4.64 11.7 4.64 19.16v54.6h-17.85l-2.1-14.17a29.203 29.203 0 0 1-10.67 11.63c-2.33 1.46-4.99 2.6-7.96 3.41-2.98.81-6.33 1.23-10.06 1.23Zm4.72-16.63c3.38 0 6.39-.61 9.01-1.84s4.9-2.98 6.83-5.25c1.92-2.28 3.41-4.81 4.46-7.61 1.05-2.8 1.75-5.77 2.1-8.92v-.35h-19.42c-4.09 0-7.47.52-10.15 1.58-2.69 1.05-4.61 2.48-5.77 4.29-1.17 1.81-1.75 3.94-1.75 6.39s.58 4.55 1.75 6.3 2.86 3.09 5.08 4.03c2.21.94 4.84 1.4 7.88 1.4Z" fill="#000000"/>
        <path d="m569.02 653.47-25.9-88.2h20.82l18.02 72.45-3.85-.17 20.12-72.28h23.45l20.3 72.28h-3.85l18.02-72.28h20.83l-25.9 88.2h-21.7l-21.52-74.73h4.38l-21.53 74.73h-21.7Z" fill="#000000"/>
        <path d="M708.24 654.57c-7.24 0-13.24-1.23-18.02-3.68-4.79-2.45-8.34-5.71-10.68-9.8-2.33-4.08-3.5-8.51-3.5-13.3 0-5.6 1.43-10.44 4.29-14.53 2.86-4.08 7.09-7.26 12.69-9.54 5.6-2.28 12.48-3.41 20.65-3.41h22.23c0-4.67-.64-8.54-1.92-11.64-1.29-3.09-3.27-5.4-5.95-6.91-2.69-1.51-6.12-2.27-10.32-2.27-4.79 0-8.87 1.08-12.25 3.24-3.39 2.16-5.49 5.46-6.3 9.89h-20.65c.7-6.3 2.8-11.69 6.3-16.19 3.5-4.49 8.14-7.99 13.91-10.5s12.1-3.76 18.99-3.76c8.28 0 15.34 1.43 21.17 4.29 5.83 2.86 10.29 6.94 13.39 12.25 3.09 5.31 4.64 11.7 4.64 19.16v54.6h-17.85l-2.1-14.17a29.203 29.203 0 0 1-10.67 11.63c-2.33 1.46-4.99 2.6-7.96 3.41-2.98.81-6.33 1.23-10.06 1.23Zm4.73-16.63c3.38 0 6.39-.61 9.01-1.84s4.9-2.98 6.83-5.25c1.92-2.28 3.41-4.81 4.46-7.61 1.05-2.8 1.75-5.77 2.1-8.92v-.35h-19.42c-4.09 0-7.47.52-10.15 1.58-2.69 1.05-4.61 2.48-5.77 4.29-1.17 1.81-1.75 3.94-1.75 6.39s.58 4.55 1.75 6.3 2.86 3.09 5.08 4.03c2.21.94 4.84 1.4 7.88 1.4Z" fill="#000000"/>
        <path d="M765.29 653.47v-88.2h18.55l1.58 14.7c2.68-5.13 6.53-9.21 11.55-12.25 5.02-3.03 10.96-4.55 17.85-4.55s13.18 1.49 18.2 4.46c5.01 2.98 8.89 7.32 11.64 13.04 2.74 5.72 4.11 12.83 4.11 21.35v51.45h-21v-49.52c0-7.35-1.64-13.01-4.9-16.98-3.27-3.96-8.11-5.95-14.52-5.95-4.2 0-7.96.99-11.29 2.98-3.32 1.99-5.95 4.87-7.88 8.66-1.92 3.79-2.89 8.37-2.89 13.74v47.08h-21Z" fill="#000000"/>
        <path d="M857.86 653.47v-88.2h21v88.2h-21Z" fill="#000000"/>
        <path d="M889.19 691.97v-126.7h18.73l2.27 12.78c1.86-2.56 4.11-4.99 6.74-7.26s5.83-4.11 9.62-5.51c3.79-1.4 8.14-2.1 13.04-2.1 8.28 0 15.6 2.04 21.96 6.12 6.36 4.08 11.35 9.6 14.96 16.54 3.62 6.94 5.43 14.85 5.43 23.71s-1.84 16.77-5.51 23.71c-3.67 6.94-8.69 12.4-15.05 16.36-6.36 3.96-13.62 5.95-21.79 5.95-6.65 0-12.46-1.26-17.41-3.76-4.96-2.51-8.96-6.09-11.99-10.76v50.92h-21Zm46.02-54.6c4.9 0 9.27-1.16 13.12-3.5 3.85-2.33 6.85-5.6 9.01-9.8 2.16-4.2 3.24-9.04 3.24-14.52s-1.08-10.5-3.24-14.7c-2.16-4.2-5.16-7.46-9.01-9.8-3.85-2.33-8.23-3.5-13.12-3.5s-9.42 1.17-13.21 3.5c-3.79 2.33-6.77 5.6-8.93 9.8-2.16 4.2-3.24 9.04-3.24 14.52s1.08 10.47 3.24 14.61c2.16 4.14 5.13 7.41 8.93 9.8 3.79 2.39 8.19 3.59 13.21 3.59Z" fill="#000000"/>
        <path d="M989.24 653.47v-88.2h18.73l1.92 16.45c2.1-3.85 4.73-7.15 7.88-9.89 3.15-2.74 6.85-4.87 11.11-6.39 4.26-1.52 8.95-2.27 14.09-2.27v22.22h-7.35c-3.5 0-6.83.44-9.98 1.31s-5.86 2.28-8.14 4.2c-2.27 1.92-4.05 4.55-5.34 7.88s-1.92 7.5-1.92 12.51v42.17h-21Z" fill="#000000"/>
        <path d="M1086.91 655.57c-8.4 0-15.96-1.96-22.66-5.86-6.71-3.91-11.96-9.33-15.75-16.27-3.79-6.94-5.69-14.9-5.69-23.89s1.92-17.29 5.77-24.24c3.85-6.94 9.13-12.36 15.84-16.27 6.71-3.91 14.26-5.86 22.66-5.86s15.95 1.96 22.66 5.86c6.71 3.91 11.96 9.31 15.75 16.19 3.79 6.89 5.69 14.94 5.69 24.15s-1.92 17.27-5.77 24.15c-3.85 6.89-9.13 12.28-15.84 16.19-6.71 3.91-14.26 5.86-22.66 5.86Zm0-18.03c4.2 0 8.02-1.05 11.46-3.15 3.44-2.1 6.21-5.25 8.31-9.45 2.1-4.2 3.15-9.39 3.15-15.58s-1.02-11.34-3.06-15.49c-2.04-4.14-4.79-7.26-8.23-9.36-3.44-2.1-7.26-3.15-11.46-3.15s-7.88 1.05-11.38 3.15c-3.5 2.1-6.3 5.22-8.4 9.36-2.1 4.14-3.15 9.31-3.15 15.49s1.05 11.38 3.15 15.58c2.1 4.2 4.87 7.35 8.31 9.45 3.44 2.1 7.2 3.15 11.29 3.15Z" fill="#000000"/>
        <text transform="translate(925.46 691.49)" font-family="DMSans-Medium,'DM Sans'" font-size="32" font-weight="500" fill="#000000"><tspan y="0" x="0">D  i  g  i  t  a  l</tspan></text>
        <path d="m1737.18 502.82 39.86-.87c28.49-15.54 44.52-46.38 40.34-76.9-5.42-39.55-41.84-56.94-44.27-58.05l-69.01.5-6.86 7.97.88 40.67c1.37 5.33 6.31 8.99 11.72 8.75 5.22-.23 9.7-4.04 10.8-9.24l-.06-24.5 53.02-.99c2.87 2.17 19.67 15.27 21.84 38.37 2.81 29.95-21.61 48.54-22.93 49.51l-37.4.81" fill="#4793af" stroke="#4793af" stroke-width="4" stroke-miterlimit="10"/>
        <path d="M1706.56 455.21c2.98 5.51.89 12.5-4.62 15.48s-12.5.89-15.48-4.62l-28.51-57.55-39.06 89.87c-2.34 5.81-9.05 8.67-14.87 6.32s-8.67-9.05-6.32-14.87l51.49-116.15c1.76-3.32 5.23-5.35 8.89-5.19 5.09.22 7.69 4.53 7.86 4.83l40.62 81.87Z" stroke="#000000" stroke-miterlimit="10" fill="#000000"/>
        <path fill="#c1272d" d="M1724.77 491.84c0 6.351-5.149 11.5-11.5 11.5s-11.5-5.149-11.5-11.5 5.149-11.5 11.5-11.5 11.5 5.149 11.5 11.5z"/>
        <path fill="#c1272d" d="M2298.63 374.11c0 6.351-5.149 11.5-11.5 11.5s-11.5-5.149-11.5-11.5 5.149-11.5 11.5-11.5 11.5 5.149 11.5 11.5z"/>
        <path d="M1908.65 488.39c-7.24 0-13.24-1.23-18.02-3.68-4.79-2.45-8.34-5.71-10.68-9.8-2.33-4.08-3.5-8.51-3.5-13.3 0-5.6 1.43-10.44 4.29-14.53 2.86-4.08 7.09-7.26 12.69-9.54 5.6-2.28 12.48-3.41 20.65-3.41h22.23c0-4.67-.64-8.54-1.92-11.64-1.29-3.09-3.27-5.4-5.95-6.91-2.69-1.51-6.12-2.27-10.32-2.27-4.79 0-8.87 1.08-12.25 3.24-3.39 2.16-5.49 5.46-6.3 9.89h-20.65c.7-6.3 2.8-11.69 6.3-16.19 3.5-4.49 8.14-7.99 13.91-10.5s12.1-3.76 18.99-3.76c8.28 0 15.34 1.43 21.17 4.29 5.83 2.86 10.29 6.94 13.39 12.25 3.09 5.31 4.64 11.7 4.64 19.16v54.6h-17.85l-2.1-14.17a29.203 29.203 0 0 1-10.67 11.63c-2.33 1.46-4.99 2.6-7.96 3.41-2.98.81-6.33 1.23-10.06 1.23Zm4.73-16.62c3.38 0 6.39-.61 9.01-1.84s4.9-2.98 6.83-5.25c1.92-2.28 3.41-4.81 4.46-7.61 1.05-2.8 1.75-5.77 2.1-8.92v-.35h-19.42c-4.09 0-7.47.52-10.15 1.58-2.69 1.05-4.61 2.48-5.77 4.29-1.17 1.81-1.75 3.94-1.75 6.39s.58 4.55 1.75 6.3 2.86 3.09 5.08 4.03c2.21.94 4.84 1.4 7.88 1.4Z" fill="#000000"/>
        <path d="m1987.15 486.29-25.9-88.2h20.82l18.02 72.45-3.85-.17 20.12-72.28h23.45l20.3 72.28h-3.85l18.02-72.28h20.83l-25.9 88.2h-21.7l-21.52-74.73h4.38l-21.53 74.73h-21.7Z" fill="#000000"/>
        <path d="M2126.38 487.39c-7.24 0-13.24-1.23-18.02-3.68-4.79-2.45-8.34-5.71-10.68-9.8-2.33-4.08-3.5-8.51-3.5-13.3 0-5.6 1.43-10.44 4.29-14.53 2.86-4.08 7.09-7.26 12.69-9.54 5.6-2.28 12.48-3.41 20.65-3.41h22.23c0-4.67-.64-8.54-1.92-11.64-1.29-3.09-3.27-5.4-5.95-6.91-2.69-1.51-6.12-2.27-10.32-2.27-4.79 0-8.87 1.08-12.25 3.24-3.39 2.16-5.49 5.46-6.3 9.89h-20.65c.7-6.3 2.8-11.69 6.3-16.19 3.5-4.49 8.14-7.99 13.91-10.5s12.1-3.76 18.99-3.76c8.28 0 15.34 1.43 21.17 4.29 5.83 2.86 10.29 6.94 13.39 12.25 3.09 5.31 4.64 11.7 4.64 19.16v54.6h-17.85l-2.1-14.17a29.203 29.203 0 0 1-10.67 11.63c-2.33 1.46-4.99 2.6-7.96 3.41-2.98.81-6.33 1.23-10.06 1.23Zm4.72-16.62c3.38 0 6.39-.61 9.01-1.84s4.9-2.98 6.83-5.25c1.92-2.28 3.41-4.81 4.46-7.61 1.05-2.8 1.75-5.77 2.1-8.92v-.35h-19.42c-4.09 0-7.47.52-10.15 1.58-2.69 1.05-4.61 2.48-5.77 4.29-1.17 1.81-1.75 3.94-1.75 6.39s.58 4.55 1.75 6.3 2.86 3.09 5.08 4.03c2.21.94 4.84 1.4 7.88 1.4Z" fill="#000000"/>
        <path d="M2183.42 486.29v-88.2h18.55l1.58 14.7c2.68-5.13 6.53-9.21 11.55-12.25 5.02-3.03 10.96-4.55 17.85-4.55s13.18 1.49 18.2 4.46c5.01 2.98 8.89 7.32 11.64 13.04 2.74 5.72 4.11 12.83 4.11 21.35v51.45h-21v-49.52c0-7.35-1.64-13.01-4.9-16.98-3.27-3.96-8.11-5.95-14.52-5.95-4.2 0-7.96.99-11.29 2.98-3.32 1.99-5.95 4.87-7.88 8.66-1.92 3.79-2.89 8.37-2.89 13.74v47.08h-21Z" fill="#000000"/>
        <path d="M2276 486.29v-88.2h21v88.2h-21Z" fill="#000000"/>
        <path d="M2307.32 524.79v-126.7h18.73l2.27 12.78c1.86-2.56 4.11-4.99 6.74-7.26s5.83-4.11 9.62-5.51c3.79-1.4 8.14-2.1 13.04-2.1 8.28 0 15.6 2.04 21.96 6.12 6.36 4.08 11.35 9.6 14.96 16.54 3.62 6.94 5.43 14.85 5.43 23.71s-1.84 16.77-5.51 23.71c-3.67 6.94-8.69 12.4-15.05 16.36-6.36 3.96-13.62 5.95-21.79 5.95-6.65 0-12.46-1.26-17.41-3.76-4.96-2.51-8.96-6.09-11.99-10.76v50.92h-21Zm46.02-54.6c4.9 0 9.27-1.16 13.12-3.5 3.85-2.33 6.85-5.6 9.01-9.8 2.16-4.2 3.24-9.04 3.24-14.52s-1.08-10.5-3.24-14.7c-2.16-4.2-5.16-7.46-9.01-9.8-3.85-2.33-8.23-3.5-13.12-3.5s-9.42 1.17-13.21 3.5c-3.79 2.33-6.77 5.6-8.93 9.8-2.16 4.2-3.24 9.04-3.24 14.52s1.08 10.47 3.24 14.61c2.16 4.14 5.13 7.41 8.93 9.8 3.79 2.39 8.19 3.59 13.21 3.59Z" fill="#000000"/>
        <path d="M2407.37 486.29v-88.2h18.73l1.92 16.45c2.1-3.85 4.73-7.15 7.88-9.89 3.15-2.74 6.85-4.87 11.11-6.39 4.26-1.52 8.95-2.27 14.09-2.27v22.22h-7.35c-3.5 0-6.83.44-9.98 1.31s-5.86 2.28-8.14 4.2c-2.27 1.92-4.05 4.55-5.34 7.88s-1.92 7.5-1.92 12.51v42.17h-21Z" fill="#000000"/>
        <path d="M2505.04 488.39c-8.4 0-15.96-1.96-22.66-5.86-6.71-3.91-11.96-9.33-15.75-16.27-3.79-6.94-5.69-14.9-5.69-23.89s1.92-17.29 5.77-24.24c3.85-6.94 9.13-12.36 15.84-16.27 6.71-3.91 14.26-5.86 22.66-5.86s15.95 1.96 22.66 5.86c6.71 3.91 11.96 9.31 15.75 16.19 3.79 6.89 5.69 14.94 5.69 24.15s-1.92 17.27-5.77 24.15c-3.85 6.89-9.13 12.28-15.84 16.19-6.71 3.91-14.26 5.86-22.66 5.86Zm0-18.02c4.2 0 8.02-1.05 11.46-3.15 3.44-2.1 6.21-5.25 8.31-9.45 2.1-4.2 3.15-9.39 3.15-15.58s-1.02-11.34-3.06-15.49c-2.04-4.14-4.79-7.26-8.23-9.36-3.44-2.1-7.26-3.15-11.46-3.15s-7.88 1.05-11.38 3.15c-3.5 2.1-6.3 5.22-8.4 9.36-2.1 4.14-3.15 9.31-3.15 15.49s1.05 11.38 3.15 15.58c2.1 4.2 4.87 7.35 8.31 9.45 3.44 2.1 7.2 3.15 11.29 3.15Z" fill="#000000"/>
        <path d="m3444.34 658.27 39.86-.87c28.49-15.54 44.52-46.38 40.34-76.9-5.42-39.55-41.84-56.94-44.27-58.05l-69.01.5-6.86 7.97.88 40.67c1.37 5.33 6.31 8.99 11.72 8.75 5.22-.23 9.7-4.04 10.8-9.24l-.06-24.5 53.02-.99c2.87 2.17 19.67 15.27 21.84 38.37 2.81 29.95-21.61 48.54-22.93 49.51l-37.4.81" fill="#4793af" stroke="#4793af" stroke-width="4" stroke-miterlimit="10"/>
        <path d="M3413.72 610.66c2.98 5.51.89 12.5-4.62 15.48s-12.5.89-15.48-4.62l-28.51-57.55-39.06 89.87c-2.34 5.81-9.05 8.67-14.87 6.32s-8.67-9.05-6.32-14.87l51.49-116.15c1.76-3.32 5.23-5.35 8.89-5.19 5.09.22 7.69 4.53 7.86 4.83l40.62 81.87Z" stroke="#000000" stroke-miterlimit="10" fill="#000000"/>
        <path fill="#c1272d" d="M3431.93 647.29c0 6.351-5.149 11.5-11.5 11.5s-11.5-5.149-11.5-11.5 5.149-11.5 11.5-11.5 11.5 5.149 11.5 11.5z"/>
        <path fill="#c1272d" d="M4005.79 529.56c0 6.351-5.149 11.5-11.5 11.5s-11.5-5.149-11.5-11.5 5.149-11.5 11.5-11.5 11.5 5.149 11.5 11.5z"/>
        <path d="M3615.81 643.84c-7.24 0-13.24-1.23-18.02-3.68-4.79-2.45-8.34-5.71-10.68-9.8-2.33-4.08-3.5-8.51-3.5-13.3 0-5.6 1.43-10.44 4.29-14.53 2.86-4.08 7.09-7.26 12.69-9.54 5.6-2.28 12.48-3.41 20.65-3.41h22.23c0-4.67-.64-8.54-1.92-11.64-1.29-3.09-3.27-5.4-5.95-6.91-2.69-1.51-6.12-2.27-10.32-2.27-4.79 0-8.87 1.08-12.25 3.24-3.39 2.16-5.49 5.46-6.3 9.89h-20.65c.7-6.3 2.8-11.69 6.3-16.19 3.5-4.49 8.14-7.99 13.91-10.5s12.1-3.76 18.99-3.76c8.28 0 15.34 1.43 21.17 4.29 5.83 2.86 10.29 6.94 13.39 12.25 3.09 5.31 4.64 11.7 4.64 19.16v54.6h-17.85l-2.1-14.17a29.203 29.203 0 0 1-10.67 11.63c-2.33 1.46-4.99 2.6-7.96 3.41-2.98.81-6.33 1.23-10.06 1.23Zm4.73-16.62c3.38 0 6.39-.61 9.01-1.84s4.9-2.98 6.83-5.25c1.92-2.28 3.41-4.81 4.46-7.61 1.05-2.8 1.75-5.77 2.1-8.92v-.35h-19.42c-4.09 0-7.47.52-10.15 1.58-2.69 1.05-4.61 2.48-5.77 4.29-1.17 1.81-1.75 3.94-1.75 6.39s.58 4.55 1.75 6.3 2.86 3.09 5.08 4.03c2.21.94 4.84 1.4 7.88 1.4Z" fill="#000000"/>
        <path d="m3694.31 641.74-25.9-88.2h20.82l18.02 72.45-3.85-.17 20.12-72.28h23.45l20.3 72.28h-3.85l18.02-72.28h20.83l-25.9 88.2h-21.7l-21.52-74.73h4.38L3716 641.74h-21.7Z" fill="#000000"/>
        <path d="M3833.54 642.84c-7.24 0-13.24-1.23-18.02-3.68-4.79-2.45-8.34-5.71-10.68-9.8-2.33-4.08-3.5-8.51-3.5-13.3 0-5.6 1.43-10.44 4.29-14.53 2.86-4.08 7.09-7.26 12.69-9.54 5.6-2.28 12.48-3.41 20.65-3.41h22.23c0-4.67-.64-8.54-1.92-11.64-1.29-3.09-3.27-5.4-5.95-6.91-2.69-1.51-6.12-2.27-10.32-2.27-4.79 0-8.87 1.08-12.25 3.24-3.39 2.16-5.49 5.46-6.3 9.89h-20.65c.7-6.3 2.8-11.69 6.3-16.19 3.5-4.49 8.14-7.99 13.91-10.5s12.1-3.76 18.99-3.76c8.28 0 15.34 1.43 21.17 4.29 5.83 2.86 10.29 6.94 13.39 12.25 3.09 5.31 4.64 11.7 4.64 19.16v54.6h-17.85l-2.1-14.17a29.203 29.203 0 0 1-10.67 11.63c-2.33 1.46-4.99 2.6-7.96 3.41-2.98.81-6.33 1.23-10.06 1.23Zm4.72-16.62c3.38 0 6.39-.61 9.01-1.84s4.9-2.98 6.83-5.25c1.92-2.28 3.41-4.81 4.46-7.61 1.05-2.8 1.75-5.77 2.1-8.92v-.35h-19.42c-4.09 0-7.47.52-10.15 1.58-2.69 1.05-4.61 2.48-5.77 4.29-1.17 1.81-1.75 3.94-1.75 6.39s.58 4.55 1.75 6.3 2.86 3.09 5.08 4.03c2.21.94 4.84 1.4 7.88 1.4Z" fill="#000000"/>
        <path d="M3890.58 641.74v-88.2h18.55l1.58 14.7c2.68-5.13 6.53-9.21 11.55-12.25 5.02-3.03 10.96-4.55 17.85-4.55s13.18 1.49 18.2 4.46c5.01 2.98 8.89 7.32 11.64 13.04 2.74 5.72 4.11 12.83 4.11 21.35v51.45h-21v-49.52c0-7.35-1.64-13.01-4.9-16.98-3.27-3.96-8.11-5.95-14.52-5.95-4.2 0-7.96.99-11.29 2.98-3.32 1.99-5.95 4.87-7.88 8.66-1.92 3.79-2.89 8.37-2.89 13.74v47.08h-21Z" fill="#000000"/>
        <path d="M3983.16 641.74v-88.2h21v88.2h-21Z" fill="#000000"/>
        <path d="M4014.48 680.24v-126.7h18.73l2.27 12.78c1.86-2.56 4.11-4.99 6.74-7.26s5.83-4.11 9.62-5.51c3.79-1.4 8.14-2.1 13.04-2.1 8.28 0 15.6 2.04 21.96 6.12 6.36 4.08 11.35 9.6 14.96 16.54 3.62 6.94 5.43 14.85 5.43 23.71s-1.84 16.77-5.51 23.71c-3.67 6.94-8.69 12.4-15.05 16.36-6.36 3.96-13.62 5.95-21.79 5.95-6.65 0-12.46-1.26-17.41-3.76-4.96-2.51-8.96-6.09-11.99-10.76v50.92h-21Zm46.03-54.6c4.9 0 9.27-1.16 13.12-3.5 3.85-2.33 6.85-5.6 9.01-9.8 2.16-4.2 3.24-9.04 3.24-14.52s-1.08-10.5-3.24-14.7c-2.16-4.2-5.16-7.46-9.01-9.8-3.85-2.33-8.23-3.5-13.12-3.5s-9.42 1.17-13.21 3.5c-3.79 2.33-6.77 5.6-8.93 9.8-2.16 4.2-3.24 9.04-3.24 14.52s1.08 10.47 3.24 14.61c2.16 4.14 5.13 7.41 8.93 9.8 3.79 2.39 8.19 3.59 13.21 3.59Z" fill="#000000"/>
        <path d="M4114.53 641.74v-88.2h18.73l1.92 16.45c2.1-3.85 4.73-7.15 7.88-9.89 3.15-2.74 6.85-4.87 11.11-6.39 4.26-1.52 8.95-2.27 14.09-2.27v22.22h-7.35c-3.5 0-6.83.44-9.98 1.31s-5.86 2.28-8.14 4.2c-2.27 1.92-4.05 4.55-5.34 7.88s-1.92 7.5-1.92 12.51v42.17h-21Z" fill="#000000"/>
        <path d="M4212.21 643.84c-8.4 0-15.96-1.96-22.66-5.86-6.71-3.91-11.96-9.33-15.75-16.27-3.79-6.94-5.69-14.9-5.69-23.89s1.92-17.29 5.77-24.24c3.85-6.94 9.13-12.36 15.84-16.27 6.71-3.91 14.26-5.86 22.66-5.86s15.95 1.96 22.66 5.86c6.71 3.91 11.96 9.31 15.75 16.19 3.79 6.89 5.69 14.94 5.69 24.15s-1.92 17.27-5.77 24.15c-3.85 6.89-9.13 12.28-15.84 16.19-6.71 3.91-14.26 5.86-22.66 5.86Zm0-18.02c4.2 0 8.02-1.05 11.46-3.15 3.44-2.1 6.21-5.25 8.31-9.45 2.1-4.2 3.15-9.39 3.15-15.58s-1.02-11.34-3.06-15.49c-2.04-4.14-4.79-7.26-8.23-9.36-3.44-2.1-7.26-3.15-11.46-3.15s-7.88 1.05-11.38 3.15c-3.5 2.1-6.3 5.22-8.4 9.36-2.1 4.14-3.15 9.31-3.15 15.49s1.05 11.38 3.15 15.58c2.1 4.2 4.87 7.35 8.31 9.45 3.44 2.1 7.2 3.15 11.29 3.15Z" fill="#000000"/>
    </g>
</svg>
